<svg viewBox="0 0 32 32" xmlns="http://www.w3.org/2000/svg"><g data-name="Layer 2"><path d="M30 12H12v-2h5a1 1 0 0 0 1-1V2a1 1 0 0 0-1-1H5a1 1 0 0 0-1 1v7a1 1 0 0 0 1 1h5v2H2a1 1 0 0 0-1 1v3a1 1 0 0 0 1 1h1v13a1 1 0 0 0 2 0V17h12v13a1 1 0 0 0 1 1h10a1 1 0 0 0 1-1V17h1a1 1 0 0 0 1-1v-3a1 1 0 0 0-1-1ZM6 3h10v5H6Zm21 26h-8v-5h8Zm0-7h-8v-5h8Zm2-7H3v-1h26Z" fill="#e87b5a" class="fill-000000"></path><path d="M22 20.5h2a1 1 0 0 0 0-2h-2a1 1 0 0 0 0 2ZM22 27.5h2a1 1 0 0 0 0-2h-2a1 1 0 0 0 0 2Z" fill="#e87b5a" class="fill-000000"></path></g></svg>