<svg xmlns="http://www.w3.org/2000/svg" xmlns:xlink="http://www.w3.org/1999/xlink" width="500" zoomAndPan="magnify" viewBox="0 0 375 374.999991" height="500" preserveAspectRatio="xMidYMid meet" version="1.0"><defs><g/><clipPath id="d6f7779740"><path d="M 59 137.386719 L 86.113281 137.386719 L 86.113281 224.226562 L 59 224.226562 Z M 59 137.386719 " clip-rule="nonzero"/></clipPath><clipPath id="6710167c8d"><path d="M 36.753906 189.230469 L 49.804688 189.230469 L 49.804688 202.28125 L 36.753906 202.28125 Z M 36.753906 189.230469 " clip-rule="nonzero"/></clipPath><clipPath id="a633504059"><path d="M 36.753906 195.753906 C 36.753906 199.359375 39.675781 202.28125 43.28125 202.28125 C 46.882812 202.28125 49.804688 199.359375 49.804688 195.753906 C 49.804688 192.152344 46.882812 189.230469 43.28125 189.230469 C 39.675781 189.230469 36.753906 192.152344 36.753906 195.753906 Z M 36.753906 195.753906 " clip-rule="nonzero"/></clipPath><clipPath id="10619eb196"><path d="M 36.753906 159.246094 L 49.804688 159.246094 L 49.804688 172.296875 L 36.753906 172.296875 Z M 36.753906 159.246094 " clip-rule="nonzero"/></clipPath><clipPath id="f94ce981c0"><path d="M 36.753906 165.773438 C 36.753906 169.375 39.675781 172.296875 43.28125 172.296875 C 46.882812 172.296875 49.804688 169.375 49.804688 165.773438 C 49.804688 162.167969 46.882812 159.246094 43.28125 159.246094 C 39.675781 159.246094 36.753906 162.167969 36.753906 165.773438 Z M 36.753906 165.773438 " clip-rule="nonzero"/></clipPath></defs><rect x="-37.5" width="450" fill="#ffffff" y="-37.499999" height="449.999989" fill-opacity="1"/><rect x="-37.5" width="450" fill="#ffffff" y="-37.499999" height="449.999989" fill-opacity="1"/><g clip-path="url(#d6f7779740)"><path fill="#000000" d="M 61.882812 214.574219 L 59.464844 214.574219 L 59.464844 224.226562 L 61.882812 224.226562 C 69.90625 224.226562 76.410156 217.746094 76.410156 209.75 L 76.410156 192.867188 C 76.410156 191.347656 77.128906 189.917969 78.347656 189.007812 L 84.160156 184.664062 C 85.320312 183.796875 86.03125 182.453125 86.089844 181.003906 C 86.152344 179.558594 85.558594 178.160156 84.46875 177.199219 L 78.035156 171.503906 C 77.003906 170.585938 76.410156 169.273438 76.410156 167.898438 L 76.410156 151.859375 C 76.410156 143.863281 69.90625 137.386719 61.882812 137.386719 L 59.464844 137.386719 L 59.464844 147.035156 L 61.882812 147.035156 C 64.558594 147.035156 66.726562 149.195312 66.726562 151.859375 L 66.726562 167.898438 C 66.726562 172.03125 68.5 175.96875 71.605469 178.714844 L 73.605469 180.488281 L 72.539062 181.289062 C 68.878906 184.019531 66.726562 188.308594 66.726562 192.867188 L 66.726562 209.75 C 66.726562 212.417969 64.558594 214.574219 61.882812 214.574219 Z M 61.882812 214.574219 " fill-opacity="1" fill-rule="evenodd"/></g><g clip-path="url(#6710167c8d)"><g clip-path="url(#a633504059)"><path fill="#000000" d="M 36.753906 202.28125 L 36.753906 189.230469 L 49.804688 189.230469 L 49.804688 202.28125 Z M 36.753906 202.28125 " fill-opacity="1" fill-rule="nonzero"/></g></g><g clip-path="url(#10619eb196)"><g clip-path="url(#f94ce981c0)"><path fill="#000000" d="M 36.753906 172.296875 L 36.753906 159.246094 L 49.804688 159.246094 L 49.804688 172.296875 Z M 36.753906 172.296875 " fill-opacity="1" fill-rule="nonzero"/></g></g><g fill="#01143f" fill-opacity="1"><g transform="translate(101.805233, 168.003402)"><g><path d="M 3.03125 -27.140625 L 13.765625 -27.140625 C 15.796875 -27.140625 17.664062 -26.789062 19.375 -26.09375 C 21.09375 -25.40625 22.578125 -24.460938 23.828125 -23.265625 C 25.085938 -22.066406 26.070312 -20.632812 26.78125 -18.96875 C 27.5 -17.3125 27.859375 -15.507812 27.859375 -13.5625 C 27.859375 -11.625 27.5 -9.828125 26.78125 -8.171875 C 26.070312 -6.523438 25.085938 -5.09375 23.828125 -3.875 C 22.578125 -2.664062 21.09375 -1.71875 19.375 -1.03125 C 17.664062 -0.34375 15.796875 0 13.765625 0 L 3.03125 0 Z M 13.8125 -5.546875 C 14.945312 -5.546875 15.984375 -5.75 16.921875 -6.15625 C 17.867188 -6.5625 18.691406 -7.117188 19.390625 -7.828125 C 20.097656 -8.546875 20.644531 -9.390625 21.03125 -10.359375 C 21.425781 -11.335938 21.625 -12.40625 21.625 -13.5625 C 21.625 -14.726562 21.425781 -15.796875 21.03125 -16.765625 C 20.644531 -17.734375 20.097656 -18.578125 19.390625 -19.296875 C 18.691406 -20.015625 17.867188 -20.578125 16.921875 -20.984375 C 15.984375 -21.390625 14.945312 -21.59375 13.8125 -21.59375 L 8.953125 -21.59375 L 8.953125 -5.546875 Z M 13.8125 -5.546875 "/></g></g></g><g fill="#01143f" fill-opacity="1"><g transform="translate(131.086679, 168.003402)"><g><path d="M 3.03125 -27.140625 L 18.546875 -27.140625 L 18.546875 -21.59375 L 8.953125 -21.59375 L 8.953125 -16.609375 L 15.953125 -16.609375 L 15.953125 -11.0625 L 8.953125 -11.0625 L 8.953125 -5.546875 L 18.75 -5.546875 L 18.75 0 L 3.03125 0 Z M 3.03125 -27.140625 "/></g></g></g><g fill="#01143f" fill-opacity="1"><g transform="translate(151.86314, 168.003402)"><g><path d="M 0.203125 -27.140625 L 6.359375 -27.140625 L 12.265625 -10.96875 L 18.265625 -27.140625 L 24.34375 -27.140625 L 13.8125 0.484375 L 10.6875 0.484375 Z M 0.203125 -27.140625 "/></g></g></g><g fill="#01143f" fill-opacity="1"><g transform="translate(176.406092, 168.003402)"><g><path d="M 3.03125 -27.140625 L 18.34375 -27.140625 L 18.34375 -21.59375 L 8.953125 -21.59375 L 8.953125 -15.4375 L 15.75 -15.4375 L 15.75 -9.875 L 8.953125 -9.875 L 8.953125 0 L 3.03125 0 Z M 3.03125 -27.140625 "/></g></g></g><g fill="#01143f" fill-opacity="1"><g transform="translate(195.967557, 168.003402)"><g><path d="M 11.09375 -27.625 L 14.859375 -27.625 L 25.5625 0 L 19.3125 0 L 17.65625 -4.578125 L 8.296875 -4.578125 L 6.6875 0 L 0.40625 0 Z M 15.828125 -9.671875 L 13 -17.65625 L 10.125 -9.671875 Z M 15.828125 -9.671875 "/></g></g></g><g fill="#01143f" fill-opacity="1"><g transform="translate(221.928008, 168.003402)"><g><path d="M 15.515625 0.5625 C 13.484375 0.5625 11.601562 0.210938 9.875 -0.484375 C 8.15625 -1.179688 6.664062 -2.160156 5.40625 -3.421875 C 4.15625 -4.679688 3.175781 -6.171875 2.46875 -7.890625 C 1.769531 -9.617188 1.421875 -11.5 1.421875 -13.53125 C 1.421875 -15.550781 1.773438 -17.425781 2.484375 -19.15625 C 3.203125 -20.882812 4.1875 -22.382812 5.4375 -23.65625 C 6.695312 -24.925781 8.179688 -25.914062 9.890625 -26.625 C 11.609375 -27.34375 13.46875 -27.703125 15.46875 -27.703125 C 17.570312 -27.703125 19.53125 -27.296875 21.34375 -26.484375 C 23.15625 -25.671875 24.722656 -24.507812 26.046875 -23 L 21.90625 -19 C 21.125 -19.914062 20.195312 -20.632812 19.125 -21.15625 C 18.0625 -21.6875 16.898438 -21.953125 15.640625 -21.953125 C 14.472656 -21.953125 13.398438 -21.742188 12.421875 -21.328125 C 11.453125 -20.910156 10.609375 -20.328125 9.890625 -19.578125 C 9.179688 -18.835938 8.628906 -17.953125 8.234375 -16.921875 C 7.847656 -15.898438 7.65625 -14.796875 7.65625 -13.609375 C 7.65625 -12.390625 7.859375 -11.265625 8.265625 -10.234375 C 8.671875 -9.210938 9.226562 -8.320312 9.9375 -7.5625 C 10.65625 -6.8125 11.515625 -6.226562 12.515625 -5.8125 C 13.515625 -5.394531 14.609375 -5.1875 15.796875 -5.1875 C 17.085938 -5.1875 18.273438 -5.453125 19.359375 -5.984375 C 20.441406 -6.523438 21.359375 -7.257812 22.109375 -8.1875 L 26.25 -4.25 C 24.945312 -2.707031 23.382812 -1.519531 21.5625 -0.6875 C 19.738281 0.144531 17.722656 0.5625 15.515625 0.5625 Z M 15.515625 0.5625 "/></g></g></g><g fill="#01143f" fill-opacity="1"><g transform="translate(248.981954, 168.003402)"><g><path d="M 8.703125 -21.59375 L 0.8125 -21.59375 L 0.8125 -27.140625 L 22.515625 -27.140625 L 22.515625 -21.59375 L 14.625 -21.59375 L 14.625 0 L 8.703125 0 Z M 8.703125 -21.59375 "/></g></g></g><g fill="#01143f" fill-opacity="1"><g transform="translate(272.30991, 168.003402)"><g><path d="M 15.4375 0.5625 C 13.4375 0.5625 11.582031 0.195312 9.875 -0.53125 C 8.175781 -1.257812 6.695312 -2.253906 5.4375 -3.515625 C 4.1875 -4.785156 3.203125 -6.28125 2.484375 -8 C 1.773438 -9.71875 1.421875 -11.570312 1.421875 -13.5625 C 1.421875 -15.5625 1.773438 -17.425781 2.484375 -19.15625 C 3.203125 -20.882812 4.1875 -22.382812 5.4375 -23.65625 C 6.695312 -24.925781 8.175781 -25.914062 9.875 -26.625 C 11.582031 -27.34375 13.4375 -27.703125 15.4375 -27.703125 C 17.40625 -27.703125 19.242188 -27.34375 20.953125 -26.625 C 22.671875 -25.914062 24.15625 -24.925781 25.40625 -23.65625 C 26.664062 -22.382812 27.648438 -20.882812 28.359375 -19.15625 C 29.078125 -17.425781 29.4375 -15.5625 29.4375 -13.5625 C 29.4375 -11.570312 29.078125 -9.71875 28.359375 -8 C 27.648438 -6.28125 26.664062 -4.785156 25.40625 -3.515625 C 24.15625 -2.253906 22.671875 -1.257812 20.953125 -0.53125 C 19.242188 0.195312 17.40625 0.5625 15.4375 0.5625 Z M 15.4375 -5.1875 C 16.5625 -5.1875 17.597656 -5.394531 18.546875 -5.8125 C 19.492188 -6.226562 20.3125 -6.8125 21 -7.5625 C 21.6875 -8.320312 22.222656 -9.210938 22.609375 -10.234375 C 23.003906 -11.265625 23.203125 -12.375 23.203125 -13.5625 C 23.203125 -14.75 23.003906 -15.851562 22.609375 -16.875 C 22.222656 -17.90625 21.6875 -18.789062 21 -19.53125 C 20.3125 -20.28125 19.492188 -20.867188 18.546875 -21.296875 C 17.597656 -21.734375 16.5625 -21.953125 15.4375 -21.953125 C 14.300781 -21.953125 13.257812 -21.734375 12.3125 -21.296875 C 11.363281 -20.867188 10.546875 -20.28125 9.859375 -19.53125 C 9.171875 -18.789062 8.628906 -17.90625 8.234375 -16.875 C 7.847656 -15.851562 7.65625 -14.75 7.65625 -13.5625 C 7.65625 -12.375 7.847656 -11.265625 8.234375 -10.234375 C 8.628906 -9.210938 9.171875 -8.332031 9.859375 -7.59375 C 10.546875 -6.851562 11.363281 -6.265625 12.3125 -5.828125 C 13.257812 -5.398438 14.300781 -5.1875 15.4375 -5.1875 Z M 15.4375 -5.1875 "/></g></g></g><g fill="#01143f" fill-opacity="1"><g transform="translate(303.170835, 168.003402)"><g><path d="M 3.03125 -27.140625 L 11.546875 -27.140625 C 12.953125 -27.140625 14.253906 -26.921875 15.453125 -26.484375 C 16.648438 -26.054688 17.679688 -25.445312 18.546875 -24.65625 C 19.410156 -23.875 20.082031 -22.941406 20.5625 -21.859375 C 21.050781 -20.785156 21.296875 -19.613281 21.296875 -18.34375 C 21.296875 -16.726562 20.90625 -15.265625 20.125 -13.953125 C 19.34375 -12.640625 18.265625 -11.617188 16.890625 -10.890625 L 23.25 0 L 16.359375 0 L 11.09375 -9.515625 L 8.953125 -9.515625 L 8.953125 0 L 3.03125 0 Z M 11.265625 -14.734375 C 12.523438 -14.734375 13.523438 -15.050781 14.265625 -15.6875 C 15.015625 -16.320312 15.390625 -17.195312 15.390625 -18.3125 C 15.390625 -19.414062 15.007812 -20.238281 14.25 -20.78125 C 13.5 -21.320312 12.503906 -21.59375 11.265625 -21.59375 L 8.953125 -21.59375 L 8.953125 -14.734375 Z M 11.265625 -14.734375 "/></g></g></g><g fill="#01143f" fill-opacity="1"><g transform="translate(327.025288, 168.003402)"><g><path d="M 8.09375 -9.71875 L -0.203125 -27.140625 L 6.234375 -27.140625 L 11.21875 -16.15625 L 16.328125 -27.140625 L 22.4375 -27.140625 L 14.015625 -9.796875 L 14.015625 0 L 8.09375 0 Z M 8.09375 -9.71875 "/></g></g></g><g fill="#01143f" fill-opacity="1"><g transform="translate(101.805233, 209.156017)"><g><path d="M 10.71875 -25.96875 L 11.46875 -25.96875 L 21.0625 0 L 18.171875 0 L 15.796875 -6.625 L 6.25 -6.625 L 3.875 0 L 1.125 0 Z M 14.9375 -9.0625 L 11.03125 -19.984375 L 7.109375 -9.0625 Z M 14.9375 -9.0625 "/></g></g></g><g fill="#01143f" fill-opacity="1"><g transform="translate(123.811266, 209.156017)"><g><path d="M 14.375 0.375 C 12.644531 0.375 11.019531 0.0390625 9.5 -0.625 C 7.976562 -1.289062 6.65625 -2.203125 5.53125 -3.359375 C 4.40625 -4.523438 3.515625 -5.882812 2.859375 -7.4375 C 2.203125 -9 1.875 -10.679688 1.875 -12.484375 C 1.875 -14.296875 2.207031 -16 2.875 -17.59375 C 3.539062 -19.1875 4.441406 -20.578125 5.578125 -21.765625 C 6.722656 -22.953125 8.0625 -23.882812 9.59375 -24.5625 C 11.125 -25.238281 12.753906 -25.578125 14.484375 -25.578125 C 16.367188 -25.578125 18.125 -25.179688 19.75 -24.390625 C 21.382812 -23.609375 22.789062 -22.539062 23.96875 -21.1875 L 21.96875 -19.484375 C 20.988281 -20.617188 19.851562 -21.484375 18.5625 -22.078125 C 17.269531 -22.679688 15.898438 -22.984375 14.453125 -22.984375 C 13.046875 -22.984375 11.75 -22.71875 10.5625 -22.1875 C 9.382812 -21.664062 8.359375 -20.941406 7.484375 -20.015625 C 6.609375 -19.085938 5.925781 -17.988281 5.4375 -16.71875 C 4.945312 -15.457031 4.703125 -14.085938 4.703125 -12.609375 C 4.703125 -11.128906 4.945312 -9.753906 5.4375 -8.484375 C 5.925781 -7.210938 6.609375 -6.113281 7.484375 -5.1875 C 8.359375 -4.257812 9.398438 -3.53125 10.609375 -3 C 11.816406 -2.476562 13.117188 -2.21875 14.515625 -2.21875 C 16.097656 -2.21875 17.535156 -2.53125 18.828125 -3.15625 C 20.117188 -3.78125 21.203125 -4.625 22.078125 -5.6875 L 22.078125 -11.09375 L 14.484375 -11.09375 L 14.484375 -13.546875 L 24.71875 -13.546875 L 24.71875 -5.1875 C 23.488281 -3.40625 21.976562 -2.03125 20.1875 -1.0625 C 18.394531 -0.101562 16.457031 0.375 14.375 0.375 Z M 14.375 0.375 "/></g></g></g><g fill="#01143f" fill-opacity="1"><g transform="translate(150.78278, 209.156017)"><g><path d="M 3.390625 -25.203125 L 16.359375 -25.203125 L 16.359375 -22.765625 L 6.015625 -22.765625 L 6.015625 -14.296875 L 13.921875 -14.296875 L 13.921875 -11.859375 L 6.015625 -11.859375 L 6.015625 -2.453125 L 16.5625 -2.453125 L 16.5625 0 L 3.390625 0 Z M 3.390625 -25.203125 "/></g></g></g><g fill="#01143f" fill-opacity="1"><g transform="translate(169.403248, 209.156017)"><g><path d="M 5.9375 -19.609375 L 5.9375 0 L 3.390625 0 L 3.390625 -25.96875 L 4.140625 -25.96875 L 21.140625 -5.609375 L 21.140625 -25.203125 L 23.703125 -25.203125 L 23.703125 0.75 L 22.953125 0.75 Z M 5.9375 -19.609375 "/></g></g></g><g fill="#01143f" fill-opacity="1"><g transform="translate(196.299529, 209.156017)"><g><path d="M 14.375 0.375 C 12.59375 0.375 10.941406 0.0390625 9.421875 -0.625 C 7.910156 -1.289062 6.59375 -2.191406 5.46875 -3.328125 C 4.351562 -4.472656 3.472656 -5.828125 2.828125 -7.390625 C 2.191406 -8.960938 1.875 -10.648438 1.875 -12.453125 C 1.875 -14.304688 2.207031 -16.03125 2.875 -17.625 C 3.539062 -19.21875 4.441406 -20.601562 5.578125 -21.78125 C 6.722656 -22.957031 8.0625 -23.882812 9.59375 -24.5625 C 11.125 -25.238281 12.753906 -25.578125 14.484375 -25.578125 C 16.367188 -25.578125 18.125 -25.179688 19.75 -24.390625 C 21.382812 -23.609375 22.789062 -22.539062 23.96875 -21.1875 L 21.96875 -19.484375 C 20.988281 -20.617188 19.859375 -21.484375 18.578125 -22.078125 C 17.304688 -22.679688 15.914062 -22.984375 14.40625 -22.984375 C 13 -22.984375 11.707031 -22.726562 10.53125 -22.21875 C 9.351562 -21.707031 8.332031 -20.984375 7.46875 -20.046875 C 6.601562 -19.117188 5.925781 -18.03125 5.4375 -16.78125 C 4.945312 -15.53125 4.703125 -14.148438 4.703125 -12.640625 C 4.703125 -11.140625 4.945312 -9.75 5.4375 -8.46875 C 5.925781 -7.1875 6.609375 -6.085938 7.484375 -5.171875 C 8.359375 -4.253906 9.398438 -3.53125 10.609375 -3 C 11.816406 -2.476562 13.132812 -2.21875 14.5625 -2.21875 C 16.144531 -2.21875 17.570312 -2.53125 18.84375 -3.15625 C 20.125 -3.78125 21.203125 -4.625 22.078125 -5.6875 L 23.96875 -4.0625 C 22.789062 -2.6875 21.382812 -1.601562 19.75 -0.8125 C 18.125 -0.0195312 16.332031 0.375 14.375 0.375 Z M 14.375 0.375 "/></g></g></g><g fill="#01143f" fill-opacity="1"><g transform="translate(221.766351, 209.156017)"><g><path d="M 8.46875 -9.78125 L 0.75 -25.203125 L 3.71875 -25.203125 L 9.96875 -12.71875 L 16.328125 -25.203125 L 19.078125 -25.203125 L 11.09375 -9.78125 L 11.09375 0 L 8.46875 0 Z M 8.46875 -9.78125 "/></g></g></g></svg>