<svg xmlns="http://www.w3.org/2000/svg" xmlns:xlink="http://www.w3.org/1999/xlink" width="45" zoomAndPan="magnify" viewBox="0 0 33.75 33.749999" height="45" preserveAspectRatio="xMidYMid meet" version="1.0"><defs><clipPath id="3d74ee1e82"><path d="M 0 1 L 33.5 1 L 33.5 32 L 0 32 Z M 0 1 " clip-rule="nonzero"/></clipPath></defs><g clip-path="url(#3d74ee1e82)"><path fill="#5FD3F3" d="M 16.75 13.765625 C 16.355469 13.765625 15.972656 13.839844 15.609375 13.992188 C 15.242188 14.144531 14.917969 14.359375 14.640625 14.640625 C 14.359375 14.917969 14.144531 15.242188 13.992188 15.609375 C 13.839844 15.972656 13.765625 16.355469 13.765625 16.75 C 13.765625 17.148438 13.839844 17.527344 13.992188 17.894531 C 14.144531 18.257812 14.359375 18.582031 14.640625 18.863281 C 14.917969 19.140625 15.242188 19.359375 15.609375 19.507812 C 15.972656 19.660156 16.355469 19.738281 16.75 19.738281 C 17.148438 19.738281 17.527344 19.660156 17.894531 19.507812 C 18.257812 19.359375 18.582031 19.140625 18.863281 18.863281 C 19.140625 18.582031 19.359375 18.257812 19.507812 17.894531 C 19.660156 17.527344 19.738281 17.148438 19.738281 16.75 C 19.738281 16.355469 19.660156 15.972656 19.507812 15.609375 C 19.359375 15.242188 19.140625 14.917969 18.863281 14.640625 C 18.582031 14.359375 18.257812 14.144531 17.894531 13.992188 C 17.527344 13.839844 17.148438 13.765625 16.75 13.765625 Z M 8.386719 22.691406 L 7.726562 22.523438 C 2.816406 21.28125 0 19.175781 0 16.746094 C 0 14.316406 2.816406 12.207031 7.726562 10.96875 L 8.386719 10.800781 L 8.574219 11.453125 C 9.070312 13.171875 9.703125 14.835938 10.476562 16.449219 L 10.617188 16.746094 L 10.476562 17.042969 C 9.703125 18.65625 9.070312 20.320312 8.574219 22.039062 Z M 7.421875 12.492188 C 3.6875 13.542969 1.398438 15.144531 1.398438 16.746094 C 1.398438 18.34375 3.6875 19.949219 7.421875 20.996094 C 7.878906 19.542969 8.429688 18.125 9.070312 16.746094 C 8.429688 15.363281 7.878906 13.945312 7.421875 12.492188 Z M 25.113281 22.691406 L 24.929688 22.035156 C 24.433594 20.320312 23.796875 18.65625 23.027344 17.042969 L 22.882812 16.746094 L 23.027344 16.449219 C 23.796875 14.835938 24.429688 13.171875 24.929688 11.453125 L 25.113281 10.800781 L 25.777344 10.964844 C 30.683594 12.207031 33.5 14.3125 33.5 16.746094 C 33.5 19.175781 30.683594 21.28125 25.777344 22.523438 Z M 24.429688 16.746094 C 25.101562 18.195312 25.652344 19.621094 26.078125 20.996094 C 29.8125 19.949219 32.101562 18.34375 32.101562 16.746094 C 32.101562 15.144531 29.8125 13.542969 26.078125 12.492188 C 25.625 13.945312 25.074219 15.363281 24.429688 16.746094 Z M 7.414062 12.488281 L 7.226562 11.835938 C 5.847656 6.96875 6.265625 3.480469 8.375 2.265625 C 10.445312 1.070312 13.769531 2.480469 17.253906 6.054688 L 17.726562 6.542969 L 17.253906 7.03125 C 16.011719 8.320312 14.886719 9.699219 13.871094 11.171875 L 13.683594 11.441406 L 13.355469 11.46875 C 11.570312 11.609375 9.808594 11.894531 8.070312 12.320312 Z M 10.058594 3.230469 C 9.683594 3.230469 9.355469 3.3125 9.074219 3.472656 C 7.6875 4.273438 7.441406 7.054688 8.398438 10.804688 C 9.886719 10.472656 11.390625 10.242188 12.910156 10.105469 C 13.789062 8.859375 14.742188 7.675781 15.773438 6.554688 C 13.597656 4.433594 11.535156 3.230469 10.058594 3.230469 Z M 23.445312 31.65625 C 23.441406 31.65625 23.441406 31.65625 23.445312 31.65625 C 21.457031 31.65625 18.902344 30.15625 16.25 27.433594 L 15.773438 26.949219 L 16.25 26.460938 C 17.488281 25.171875 18.617188 23.789062 19.628906 22.316406 L 19.816406 22.046875 L 20.144531 22.019531 C 21.929688 21.878906 23.691406 21.597656 25.429688 21.171875 L 26.089844 21.003906 L 26.277344 21.65625 C 27.65625 26.519531 27.238281 30.007812 25.125 31.226562 C 24.605469 31.519531 24.042969 31.664062 23.445312 31.65625 Z M 17.726562 26.933594 C 19.902344 29.054688 21.964844 30.257812 23.441406 30.257812 L 23.445312 30.257812 C 23.816406 30.257812 24.148438 30.179688 24.425781 30.019531 C 25.816406 29.21875 26.0625 26.4375 25.105469 22.683594 C 23.613281 23.015625 22.109375 23.25 20.589844 23.382812 C 19.714844 24.628906 18.757812 25.816406 17.726562 26.933594 Z M 26.089844 12.488281 L 25.429688 12.320312 C 23.691406 11.890625 21.929688 11.609375 20.144531 11.46875 L 19.816406 11.441406 L 19.628906 11.171875 C 18.617188 9.699219 17.488281 8.316406 16.25 7.03125 L 15.773438 6.542969 L 16.25 6.054688 C 19.730469 2.480469 23.054688 1.070312 25.125 2.265625 C 27.238281 3.480469 27.65625 6.96875 26.277344 11.832031 Z M 20.589844 10.105469 C 22.183594 10.25 23.699219 10.488281 25.105469 10.804688 C 26.0625 7.054688 25.816406 4.273438 24.425781 3.472656 C 23.046875 2.675781 20.457031 3.898438 17.726562 6.554688 C 18.757812 7.675781 19.714844 8.859375 20.589844 10.105469 Z M 10.058594 31.65625 C 9.457031 31.664062 8.898438 31.519531 8.375 31.226562 C 6.265625 30.007812 5.847656 26.523438 7.226562 21.65625 L 7.410156 21.003906 L 8.070312 21.171875 C 9.683594 21.578125 11.460938 21.863281 13.351562 22.019531 L 13.679688 22.046875 L 13.867188 22.316406 C 14.882812 23.789062 16.011719 25.171875 17.25 26.460938 L 17.722656 26.949219 L 17.25 27.433594 C 14.601562 30.15625 12.046875 31.65625 10.058594 31.65625 Z M 8.398438 22.683594 C 7.441406 26.4375 7.6875 29.21875 9.074219 30.019531 C 10.453125 30.804688 13.042969 29.59375 15.773438 26.933594 C 14.742188 25.8125 13.789062 24.628906 12.910156 23.382812 C 11.390625 23.25 9.886719 23.015625 8.398438 22.683594 Z M 16.75 23.558594 C 15.601562 23.558594 14.421875 23.511719 13.238281 23.414062 L 12.910156 23.382812 L 12.722656 23.113281 C 12.054688 22.152344 11.425781 21.167969 10.835938 20.152344 C 10.253906 19.136719 9.710938 18.101562 9.210938 17.042969 L 9.070312 16.746094 L 9.210938 16.449219 C 9.710938 15.390625 10.253906 14.351562 10.835938 13.339844 C 11.414062 12.339844 12.050781 11.339844 12.722656 10.375 L 12.910156 10.105469 L 13.238281 10.078125 C 15.582031 9.878906 17.921875 9.878906 20.265625 10.078125 L 20.589844 10.105469 L 20.777344 10.375 C 22.121094 12.300781 23.289062 14.324219 24.292969 16.449219 L 24.433594 16.746094 L 24.292969 17.042969 C 23.292969 19.167969 22.121094 21.191406 20.777344 23.113281 L 20.589844 23.382812 L 20.265625 23.414062 C 19.082031 23.511719 17.898438 23.558594 16.75 23.558594 Z M 13.683594 22.046875 C 15.75 22.203125 17.75 22.203125 19.820312 22.046875 C 20.976562 20.355469 21.996094 18.589844 22.882812 16.746094 C 22 14.898438 20.976562 13.132812 19.816406 11.445312 C 17.773438 11.289062 15.730469 11.289062 13.683594 11.445312 C 12.523438 13.132812 11.503906 14.898438 10.617188 16.746094 C 11.507812 18.589844 12.527344 20.355469 13.683594 22.046875 Z M 13.683594 22.046875 " fill-opacity="1" fill-rule="nonzero"/></g></svg>