<svg xmlns="http://www.w3.org/2000/svg" xmlns:xlink="http://www.w3.org/1999/xlink" width="45" zoomAndPan="magnify" viewBox="0 0 33.75 33.749999" height="45" preserveAspectRatio="xMidYMid meet" version="1.0"><defs><clipPath id="e647cd1c14"><path d="M 0 0 L 33.5 0 L 33.5 33.5 L 0 33.5 Z M 0 0 " clip-rule="nonzero"/></clipPath></defs><path fill="#F0DB50" d="M 20.519531 15.402344 C 20.519531 13.601562 21.976562 12.144531 23.777344 12.144531 L 26.570312 12.144531 C 27.339844 12.144531 27.964844 12.769531 27.964844 13.539062 C 27.964844 14.3125 27.339844 14.9375 26.570312 14.9375 L 23.777344 14.9375 C 23.519531 14.9375 23.3125 15.144531 23.3125 15.402344 L 23.3125 18.195312 C 23.3125 18.449219 23.519531 18.660156 23.777344 18.660156 L 24.707031 18.660156 C 26.507812 18.660156 27.964844 20.117188 27.964844 21.914062 L 27.964844 24.707031 C 27.964844 26.507812 26.507812 27.964844 24.707031 27.964844 L 21.914062 27.964844 C 21.144531 27.964844 20.519531 27.339844 20.519531 26.570312 C 20.519531 25.796875 21.144531 25.171875 21.914062 25.171875 L 24.707031 25.171875 C 24.964844 25.171875 25.171875 24.964844 25.171875 24.707031 L 25.171875 21.914062 C 25.171875 21.660156 24.964844 21.449219 24.707031 21.449219 L 23.777344 21.449219 C 21.976562 21.449219 20.519531 19.992188 20.519531 18.195312 Z M 20.519531 15.402344 " fill-opacity="1" fill-rule="nonzero"/><path fill="#F0DB50" d="M 18.195312 13.539062 C 18.195312 12.769531 17.570312 12.144531 16.796875 12.144531 C 16.027344 12.144531 15.402344 12.769531 15.402344 13.539062 L 15.402344 24.707031 C 15.402344 24.964844 15.195312 25.171875 14.9375 25.171875 L 12.609375 25.171875 C 11.839844 25.171875 11.214844 25.796875 11.214844 26.570312 C 11.214844 27.339844 11.839844 27.964844 12.609375 27.964844 L 14.9375 27.964844 C 16.734375 27.964844 18.195312 26.507812 18.195312 24.707031 Z M 18.195312 13.539062 " fill-opacity="1" fill-rule="nonzero"/><g clip-path="url(#e647cd1c14)"><path fill="#F0DB50" d="M 0.046875 6.09375 L 0.046875 27.5 C 0.046875 30.839844 2.753906 33.546875 6.09375 33.546875 L 27.5 33.546875 C 30.839844 33.546875 33.546875 30.839844 33.546875 27.5 L 33.546875 6.09375 C 33.546875 2.753906 30.839844 0.046875 27.5 0.046875 L 6.09375 0.046875 C 2.753906 0.046875 0.046875 2.753906 0.046875 6.09375 Z M 6.09375 2.839844 L 27.5 2.839844 C 29.296875 2.839844 30.757812 4.296875 30.757812 6.09375 L 30.757812 27.5 C 30.757812 29.296875 29.296875 30.757812 27.5 30.757812 L 6.09375 30.757812 C 4.296875 30.757812 2.839844 29.296875 2.839844 27.5 L 2.839844 6.09375 C 2.839844 4.296875 4.296875 2.839844 6.09375 2.839844 Z M 6.09375 2.839844 " fill-opacity="1" fill-rule="nonzero"/></g></svg>